<svg width="144" height="144" viewBox="0 0 144 144" fill="none" xmlns="http://www.w3.org/2000/svg">
<path d="M72 71.9999C91.86 71.9999 107.946 55.9142 107.946 36.0542C107.946 16.1941 91.86 0.108398 72 0.108398C52.14 0.108398 36.0542 16.1941 36.0542 36.0542C36.0542 55.9142 52.14 71.9999 72 71.9999ZM72 89.9728C48.0062 89.9728 0.108459 102.015 0.108459 125.919V134.905C0.108459 139.848 4.15236 143.891 9.0949 143.891H134.905C139.848 143.891 143.892 139.848 143.892 134.905V125.919C143.892 102.015 95.9938 89.9728 72 89.9728Z" fill="url(#paint0_linear_166_15)"/>
<defs>
<linearGradient id="paint0_linear_166_15" x1="-53.918" y1="71.9999" x2="34.4046" y2="170.337" gradientUnits="userSpaceOnUse">
<stop offset="0.36" stop-color="#0D85C8"/>
<stop offset="1" stop-color="#DF0D7B"/>
</linearGradient>
</defs>
</svg>
